# xmcd
#
# Track frame offsets:
#	150
#	12817
#	32962
#	49185
#	68225
#	75667
#	94243
#	115303
#	139170
#	158617
#	167950
#	186166
#	205485
#	226635
#	246185
#	254427
#	273677
#	294190
#
# Disc length: 4228 seconds
#
# Revision: 1
# Processed by: cddbd v1.5.2PL0 Copyright (c) Steve Scherf et al.
# Submitted via: audiograbber 1.83.01
#
DISCID=00108212
DTITLE=Mary J. Blige - Love and Life
DYEAR=2003
DGENRE=Soul
TTITLE0=Life and Life Intro (feat Jay Z and P. Diddy)
TTITLE1=Don't Go
TTITLE2=When We
TTITLE3=Not Today (feat Eve)
TTITLE4=Finally Made It (Interlude)
TTITLE5=Ooh!
TTITLE6=Let Me Be The 1 (feat 50 Cent)
TTITLE7=Love @ 1st Sight (feat Method Man)
TTITLE8=Willing and Waiting
TTITLE9=Free (Interlude)
TTITLE10=Friends
TTITLE11=Press On
TTITLE12=Feel Like Makin Love
TTITLE13=It's A Wrap
TTITLE14=Message In Our Music (Interlude)
TTITLE15=All My Love
TTITLE16=Special Part Of Me
TTITLE17=Ultimate Relationship (A.M.)
EXTD=
EXTT0=
EXTT1=
EXTT2=
EXTT3=
EXTT4=
EXTT5=
EXTT6=
EXTT7=
EXTT8=
EXTT9=
EXTT10=
EXTT11=
EXTT12=
EXTT13=
EXTT14=
EXTT15=
EXTT16=
EXTT17=
PLAYORDER=
